<svg width="24" height="24" viewBox="0 0 24 24" fill="none" xmlns="http://www.w3.org/2000/svg">
<path d="M18.693 6.69343H16.5493L12.0004 2.14457L2.14457 12.0004L12.0004 21.8563L16.5493 17.3074H18.693L12.0004 24L0 12.0004L12.0004 0L18.693 6.69343Z" fill="black"/>
<path d="M8.20972 12.0004L12.0004 15.7912H9.85587L6.06515 12.0004L7.13656 10.9273L9.85587 8.20972H12.0004L8.20972 12.0004Z" fill="black"/>
<path d="M20.2093 8.20972L22.9286 10.9273L24 12.0004L20.2093 15.7912H18.0656L21.8563 12.0004L18.0656 8.20972H20.2093Z" fill="black"/>
<path d="M18.8237 12.0004L18.0656 12.7586H12.0004L11.2423 12.0004L12.0004 11.2423H18.0656L18.8237 12.0004Z" fill="black"/>
</svg>
